<?xml version="1.0" standalone="no"?>
<!DOCTYPE svg PUBLIC "-//W3C//DTD SVG 20010904//EN"
 "http://www.w3.org/TR/2001/REC-SVG-20010904/DTD/svg10.dtd">
<svg version="1.0" xmlns="http://www.w3.org/2000/svg"
 width="2480.000000pt" height="2480.000000pt" viewBox="0 0 2480.000000 2480.000000"
 preserveAspectRatio="xMidYMid meet">
<metadata>
Created by potrace 1.11, written by Peter Selinger 2001-2013
</metadata>
<g transform="translate(0.000000,2480.000000) scale(0.100000,-0.100000)"
fill="#000000" stroke="none">
<path d="M11978 24795 c-1 -1 -77 -6 -168 -10 -91 -3 -181 -8 -200 -10 -19 -2
-83 -6 -141 -9 -59 -4 -117 -9 -129 -11 -12 -2 -61 -7 -108 -10 -48 -4 -98 -8
-112 -10 -14 -2 -56 -7 -95 -11 -38 -3 -79 -8 -90 -10 -11 -2 -41 -6 -67 -9
-26 -3 -65 -7 -85 -10 -21 -3 -58 -8 -83 -10 -25 -3 -72 -10 -105 -16 -33 -6
-73 -13 -88 -15 -70 -9 -114 -15 -137 -19 -40 -8 -62 -12 -110 -20 -25 -4 -54
-9 -65 -11 -11 -2 -33 -6 -50 -9 -16 -3 -55 -11 -85 -17 -30 -6 -62 -12 -70
-13 -8 -1 -28 -5 -45 -8 -52 -12 -101 -23 -147 -31 -13 -2 -66 -14 -118 -26
-92 -21 -111 -25 -147 -34 -116 -29 -201 -49 -213 -51 -8 -2 -15 -4 -15 -5 0
-1 -8 -3 -17 -5 -27 -5 -388 -105 -458 -127 -36 -11 -114 -36 -175 -55 -60
-19 -117 -37 -125 -38 -8 -2 -15 -4 -15 -4 0 -1 -280 -99 -300 -105 -5 -2 -17
-6 -25 -9 -8 -3 -78 -29 -155 -57 -187 -69 -464 -181 -565 -228 -19 -9 -37
-17 -40 -17 -3 0 -31 -13 -64 -28 -32 -15 -61 -27 -64 -27 -3 0 -46 -20 -96
-43 -50 -24 -152 -73 -226 -108 -74 -35 -136 -67 -138 -71 -2 -5 -10 -8 -17
-8 -8 0 -37 -13 -65 -30 -28 -16 -57 -30 -65 -30 -7 0 -15 -3 -17 -7 -1 -5
-37 -25 -78 -46 -118 -61 -154 -81 -162 -92 -4 -5 -8 -7 -8 -3 0 4 -34 -13
-76 -37 -42 -25 -77 -45 -80 -45 -2 0 -32 -17 -66 -38 -35 -21 -67 -41 -73
-43 -10 -4 -148 -86 -214 -127 -20 -12 -43 -25 -51 -29 -8 -4 -17 -9 -20 -13
-3 -3 -34 -24 -70 -45 -36 -21 -66 -43 -68 -47 -2 -4 -8 -8 -13 -8 -6 0 -43
-22 -84 -50 -41 -27 -77 -50 -80 -50 -4 0 -13 -6 -20 -12 -32 -29 -45 -38 -45
-33 0 3 -9 -3 -19 -12 -11 -10 -44 -34 -75 -53 -31 -19 -56 -38 -56 -42 0 -5
-6 -8 -13 -8 -7 0 -24 -11 -39 -24 -14 -14 -29 -22 -32 -19 -3 4 -6 1 -6 -5 0
-7 -5 -12 -12 -12 -6 0 -18 -7 -27 -16 -9 -8 -46 -36 -82 -62 -88 -63 -275
-202 -312 -232 -6 -5 -86 -69 -177 -141 -143 -113 -197 -157 -280 -229 -37
-32 -116 -100 -140 -120 -51 -43 -154 -136 -186 -167 -18 -18 -38 -33 -44 -33
-6 0 -9 -4 -6 -9 3 -5 -4 -15 -17 -24 -12 -8 -51 -42 -86 -76 -36 -33 -68 -61
-73 -61 -4 0 -8 -6 -9 -12 0 -7 -20 -29 -43 -48 -24 -19 -41 -38 -39 -42 2 -5
0 -8 -5 -8 -19 0 -426 -421 -584 -604 -18 -21 -48 -54 -66 -72 -17 -19 -32
-36 -32 -39 0 -2 -12 -17 -28 -33 -39 -42 -173 -203 -277 -332 -33 -41 -64
-80 -70 -87 -22 -27 -33 -42 -95 -123 -35 -47 -68 -89 -72 -95 -5 -5 -22 -28
-38 -50 -16 -22 -33 -45 -38 -50 -4 -6 -29 -39 -55 -75 -25 -36 -50 -69 -54
-75 -5 -5 -17 -23 -27 -40 -11 -16 -23 -34 -28 -40 -4 -5 -19 -25 -34 -42 -14
-18 -22 -33 -17 -33 4 0 0 -5 -9 -11 -10 -5 -18 -16 -18 -24 0 -7 -3 -15 -7
-17 -9 -4 -243 -353 -243 -363 0 -3 -5 -11 -10 -18 -6 -7 -23 -32 -39 -57 -87
-140 -111 -180 -111 -189 0 -5 -4 -11 -8 -13 -4 -1 -25 -32 -45 -68 -20 -36
-49 -85 -64 -110 -14 -25 -40 -70 -56 -100 -17 -30 -40 -71 -52 -90 -12 -19
-25 -45 -29 -57 -4 -13 -13 -29 -19 -36 -7 -6 -36 -59 -66 -117 -92 -180 -185
-365 -186 -370 -1 -3 -21 -45 -44 -95 -92 -194 -115 -244 -168 -365 -29 -69
-58 -134 -63 -145 -5 -11 -25 -60 -45 -110 -20 -49 -40 -99 -45 -110 -5 -11
-23 -58 -40 -105 -18 -47 -38 -98 -45 -115 -20 -46 -194 -543 -199 -570 -1 -5
-19 -64 -40 -130 -61 -195 -112 -367 -120 -411 -2 -12 -14 -53 -25 -91 -12
-39 -22 -82 -23 -97 -1 -14 -7 -26 -12 -26 -5 0 -7 -3 -3 -6 3 -3 2 -16 -3
-28 -4 -13 -11 -39 -14 -58 -3 -19 -10 -48 -16 -64 -6 -16 -11 -30 -10 -32 1
-1 -1 -15 -4 -30 -4 -15 -8 -36 -10 -47 -3 -11 -11 -47 -20 -80 -8 -33 -18
-80 -21 -104 -4 -23 -10 -53 -15 -66 -5 -13 -11 -43 -15 -66 -3 -24 -8 -51
-10 -59 -2 -8 -6 -31 -9 -50 -3 -19 -8 -46 -11 -60 -12 -54 -26 -127 -31 -160
-3 -19 -9 -57 -14 -85 -5 -27 -12 -68 -15 -90 -3 -22 -13 -85 -21 -140 -9 -55
-17 -116 -19 -135 -2 -19 -10 -82 -18 -140 -9 -58 -18 -137 -21 -175 -4 -39
-8 -81 -10 -95 -5 -30 -13 -114 -24 -230 -10 -114 -9 -1960 1 -2080 4 -52 10
-108 12 -125 2 -16 6 -59 10 -95 5 -62 8 -95 20 -185 2 -22 7 -67 10 -100 4
-33 8 -67 11 -76 3 -9 7 -39 10 -65 2 -27 7 -60 9 -74 3 -14 8 -47 11 -75 3
-27 7 -57 9 -65 3 -8 7 -33 10 -55 4 -22 8 -51 11 -65 2 -14 7 -41 9 -60 3
-19 10 -55 15 -80 5 -25 16 -83 24 -130 19 -105 26 -141 31 -160 2 -8 7 -28 9
-45 3 -16 13 -61 21 -100 9 -38 18 -81 21 -95 15 -76 79 -339 119 -485 9 -33
18 -67 20 -75 7 -29 34 -126 55 -195 11 -38 22 -77 24 -85 12 -45 79 -259 111
-350 19 -58 37 -112 39 -120 7 -26 131 -368 161 -445 5 -11 9 -22 10 -25 1 -3
5 -14 10 -25 4 -11 17 -42 28 -70 10 -27 24 -61 30 -75 6 -14 11 -27 12 -30 1
-3 7 -16 12 -30 6 -14 27 -63 46 -110 19 -47 58 -137 87 -200 28 -63 63 -142
78 -175 35 -79 277 -564 342 -685 49 -90 67 -123 119 -215 13 -22 33 -58 44
-80 12 -22 25 -42 28 -45 4 -4 61 -100 103 -175 14 -24 38 -63 85 -135 19 -30
36 -57 36 -60 3 -14 41 -70 48 -70 5 0 5 -4 2 -10 -3 -5 -1 -10 4 -10 6 0 11
-5 11 -10 0 -6 5 -16 10 -23 6 -7 56 -82 113 -167 56 -85 104 -157 107 -160 3
-3 25 -34 50 -70 24 -36 48 -67 52 -68 4 -2 8 -10 8 -18 0 -8 7 -17 15 -20 8
-4 15 -10 15 -15 0 -6 29 -49 65 -97 36 -48 73 -98 82 -111 10 -13 24 -30 30
-37 7 -7 13 -17 13 -23 0 -6 4 -11 8 -11 4 0 15 -12 24 -27 10 -16 29 -41 44
-58 14 -16 40 -49 57 -73 17 -23 34 -42 39 -42 4 0 8 -6 8 -14 0 -8 3 -16 8
-18 4 -1 36 -39 72 -83 35 -44 67 -82 70 -85 3 -3 23 -27 45 -55 21 -27 42
-52 45 -55 4 -3 51 -57 105 -120 54 -63 106 -122 116 -132 11 -9 19 -21 19
-28 0 -6 5 -8 10 -5 5 3 10 2 10 -3 0 -20 531 -572 551 -572 5 0 9 -4 9 -10 0
-5 19 -26 41 -47 23 -21 68 -63 100 -93 32 -30 90 -84 129 -120 39 -36 84 -76
99 -90 15 -14 58 -52 96 -85 37 -33 78 -69 91 -80 12 -12 37 -32 54 -45 17
-13 43 -34 56 -47 13 -12 70 -59 126 -105 57 -45 108 -87 115 -93 19 -16 32
-26 128 -100 50 -38 92 -72 95 -75 3 -3 21 -16 40 -30 19 -13 40 -28 45 -32
54 -43 228 -168 235 -168 5 0 10 -4 12 -8 2 -4 46 -37 98 -72 52 -36 101 -71
108 -78 7 -6 17 -12 22 -12 5 0 15 -6 22 -13 7 -7 34 -26 60 -42 27 -17 48
-34 48 -38 0 -5 4 -5 10 -2 5 3 10 1 10 -4 0 -6 4 -11 10 -11 8 0 96 -56 110
-70 3 -3 15 -11 27 -17 13 -7 33 -19 45 -25 13 -7 25 -16 28 -19 6 -6 332
-203 401 -241 85 -48 94 -53 112 -67 9 -8 17 -10 17 -5 0 5 4 5 8 -1 6 -9 25
-20 117 -69 11 -6 22 -13 25 -16 3 -3 118 -61 255 -130 138 -69 252 -128 253
-132 2 -5 8 -8 13 -8 5 0 49 -18 97 -41 108 -51 463 -209 469 -209 2 0 29 -11
59 -25 30 -14 61 -25 69 -25 8 0 15 -5 15 -12 0 -6 3 -8 7 -5 3 4 11 3 17 -1
6 -5 34 -16 61 -26 28 -9 61 -23 75 -31 14 -7 30 -14 35 -15 6 -1 19 -6 30
-10 102 -38 392 -143 400 -144 5 -1 15 -4 20 -7 11 -7 74 -28 90 -31 6 0 26
-8 44 -16 19 -7 42 -15 50 -17 9 -2 59 -17 111 -34 52 -17 97 -31 100 -30 3 0
19 -5 35 -11 17 -7 37 -13 45 -15 8 -2 62 -18 120 -35 58 -17 112 -33 120 -35
8 -1 59 -15 113 -30 53 -14 105 -28 115 -30 9 -2 100 -24 202 -49 102 -26 194
-48 205 -50 11 -2 63 -13 115 -24 52 -12 109 -23 125 -26 17 -3 41 -8 55 -11
14 -3 39 -7 55 -10 17 -3 50 -9 75 -14 46 -10 117 -23 135 -26 23 -3 128 -21
175 -29 14 -3 48 -8 75 -11 28 -3 57 -8 65 -10 8 -2 36 -6 62 -9 26 -3 58 -8
70 -10 13 -3 48 -8 78 -11 30 -3 66 -7 80 -10 14 -2 50 -6 80 -9 30 -3 64 -8
75 -10 18 -3 108 -12 229 -21 22 -2 62 -6 90 -9 28 -3 94 -8 146 -12 52 -3
111 -7 130 -9 245 -27 1179 -27 1575 0 171 11 253 17 276 20 14 2 66 6 115 10
49 4 98 9 109 11 11 2 52 6 90 9 39 4 77 8 85 10 8 2 40 7 70 10 58 6 177 22
300 40 25 4 59 9 75 11 17 2 41 6 55 9 14 3 39 7 55 9 109 18 163 27 185 31
14 3 39 7 55 10 17 3 44 8 60 12 17 4 32 7 35 8 3 1 27 4 53 9 49 8 68 11 110
22 12 3 33 7 47 10 14 3 32 7 40 9 8 2 29 7 45 10 47 8 67 12 110 23 22 6 51
13 65 16 41 8 59 12 190 46 69 17 132 33 140 35 8 1 35 8 60 15 25 7 50 13 55
15 6 1 17 4 25 7 13 5 245 71 260 74 3 0 12 3 20 7 8 3 35 11 60 18 129 33
795 264 907 315 17 8 34 14 38 14 4 0 21 7 38 15 18 8 55 23 82 34 28 11 68
27 90 37 22 10 45 19 50 20 9 2 164 70 250 109 17 7 66 30 110 50 44 19 97 45
118 56 20 11 37 17 37 13 0 -4 8 0 18 9 10 10 22 14 25 10 4 -3 7 -1 7 5 0 7
4 12 9 12 10 0 222 101 231 110 3 3 52 29 110 58 142 71 204 105 212 117 4 6
8 6 8 1 0 -5 6 -4 13 1 12 11 110 66 159 90 15 8 30 19 33 24 4 5 11 7 16 4 5
-4 9 -2 9 2 0 5 17 17 38 28 20 11 39 22 42 25 5 5 61 36 97 54 13 6 23 14 23
19 0 4 4 7 9 7 4 0 61 33 125 73 64 39 136 83 159 97 23 13 51 32 61 42 11 10
24 18 29 18 5 0 27 14 48 31 21 17 39 27 39 22 0 -4 4 -3 8 3 4 6 50 39 102
74 52 34 97 66 98 71 2 5 8 9 12 9 8 0 74 45 191 130 26 19 77 56 114 82 36
26 71 52 78 58 6 5 37 29 67 52 30 23 60 46 65 50 15 12 127 100 164 128 43
33 62 49 111 90 62 52 75 63 112 92 19 15 45 37 59 50 14 13 49 43 79 68 30
25 64 54 76 65 12 11 55 49 95 85 40 36 93 84 117 108 25 23 46 42 47 42 16 0
544 531 716 721 42 46 87 96 100 110 13 14 42 47 64 73 22 25 54 61 70 80 17
18 44 50 60 71 17 20 37 45 46 54 9 9 68 81 133 161 64 80 122 152 129 160 16
18 87 110 110 141 29 40 157 212 180 242 12 16 28 39 37 52 52 78 105 150 112
153 4 2 8 8 8 13 0 8 65 105 80 119 7 7 29 42 37 60 4 8 15 24 25 34 10 11 24
32 30 48 7 15 16 28 20 28 5 0 8 6 8 13 0 7 8 22 18 33 10 10 31 42 46 69 16
28 32 52 36 55 6 5 66 103 85 141 5 10 13 19 17 19 5 0 8 4 8 10 0 5 27 54 60
109 33 55 60 105 60 111 0 5 5 10 10 10 6 0 10 4 10 9 0 4 22 46 48 92 61 107
119 214 195 359 33 63 63 119 68 125 5 5 9 17 9 27 0 10 5 18 10 18 6 0 10 4
10 9 0 5 38 87 84 182 99 204 205 440 253 559 19 47 40 99 47 115 16 35 91
225 134 340 16 44 33 89 38 100 4 11 8 22 9 25 5 20 30 90 40 115 13 28 147
429 151 450 1 6 27 95 58 198 31 104 63 219 72 255 8 37 17 74 19 82 3 8 18
66 35 128 16 63 32 124 34 135 2 12 9 40 14 62 6 22 13 51 16 65 2 14 16 78
30 143 14 65 28 133 31 150 3 18 8 39 10 47 2 8 7 29 10 45 16 90 45 255 50
285 3 19 8 42 10 50 2 8 6 35 9 60 4 25 8 56 10 70 10 57 18 107 21 135 2 17
6 46 9 65 17 122 37 290 51 425 3 33 8 74 10 90 2 17 8 73 12 125 11 130 10
1982 -1 2100 -5 52 -10 109 -11 125 -1 17 -6 59 -10 95 -4 36 -8 79 -10 95 -2
28 -11 95 -21 170 -4 33 -10 76 -19 150 -3 28 -8 66 -12 85 -3 19 -7 44 -8 55
-1 11 -5 36 -8 55 -4 19 -9 53 -13 75 -9 67 -49 293 -59 335 -3 14 -8 41 -11
60 -5 36 -50 256 -61 300 -3 14 -8 34 -10 45 -1 11 -12 56 -22 100 -19 74 -48
198 -56 234 -4 15 -51 190 -80 296 -7 28 -28 97 -45 155 -17 58 -35 119 -40
135 -44 158 -254 766 -290 840 -5 11 -20 49 -34 85 -13 36 -30 79 -37 95 -7
17 -13 32 -14 35 -1 3 -9 23 -19 45 -10 22 -24 56 -31 76 -55 153 -455 989
-476 997 -5 2 -9 12 -9 21 0 10 -9 30 -20 44 -11 14 -20 32 -20 40 0 9 -4 17
-9 19 -4 2 -30 44 -56 93 -27 50 -59 106 -72 125 -13 19 -23 40 -23 47 0 7 -4
13 -10 13 -5 0 -10 5 -10 10 0 6 -33 66 -73 133 -41 67 -76 130 -80 140 -3 9
-11 17 -16 17 -5 0 -12 11 -15 25 -4 14 -11 25 -16 25 -6 0 -10 5 -10 10 0 12
-52 94 -63 98 -4 2 -5 8 -1 13 3 5 0 9 -5 9 -6 0 -11 5 -11 10 0 6 -5 16 -10
23 -6 7 -47 68 -92 137 -45 69 -84 127 -87 130 -14 12 -51 70 -51 80 0 5 -4
10 -8 10 -5 0 -15 12 -23 27 -13 26 -32 52 -55 77 -5 6 -13 19 -17 29 -3 9
-11 17 -17 17 -5 0 -10 5 -10 11 0 11 -50 82 -62 87 -5 2 -8 8 -8 13 0 8 -20
35 -47 64 -7 8 -13 18 -13 24 0 6 -4 11 -10 11 -5 0 -10 6 -10 14 0 8 -3 16
-8 18 -4 2 -47 55 -96 118 -49 63 -95 120 -103 126 -7 6 -13 14 -13 18 0 4 -6
13 -12 20 -7 7 -24 27 -38 45 -13 18 -35 45 -47 59 -13 15 -28 33 -34 40 -32
39 -117 140 -136 162 -12 14 -31 36 -43 50 -40 48 -125 144 -147 168 -13 12
-23 27 -23 33 0 6 -4 7 -10 4 -5 -3 -10 -2 -10 3 0 6 -20 31 -45 56 -24 25
-43 46 -41 46 16 0 -631 643 -750 747 -39 33 -156 138 -178 158 -12 11 -50 45
-86 75 -36 30 -76 65 -90 76 -33 28 -106 90 -160 134 -23 19 -48 41 -55 48 -8
6 -16 12 -19 12 -3 0 -14 8 -24 18 -22 20 -30 26 -147 117 -114 88 -94 73
-210 159 -55 41 -121 91 -147 110 -26 20 -52 36 -57 36 -5 0 -11 4 -13 8 -1 4
-46 37 -98 72 -52 36 -97 67 -100 70 -3 3 -23 17 -45 31 -22 14 -57 37 -77 50
-21 13 -38 27 -38 32 0 4 -5 7 -10 7 -12 0 -94 52 -98 63 -2 4 -8 7 -13 7 -4
0 -41 21 -81 47 -40 27 -82 53 -93 59 -11 6 -85 51 -165 99 -80 48 -163 98
-185 110 -22 12 -58 32 -80 45 -41 23 -110 61 -200 111 -27 15 -70 38 -95 50
-25 13 -71 38 -103 56 -31 18 -61 33 -65 34 -4 1 -86 41 -183 89 -97 48 -184
90 -195 93 -10 4 -26 11 -34 16 -8 5 -36 19 -62 30 -52 23 -115 51 -194 87
-27 12 -72 32 -100 43 -27 10 -67 27 -89 37 -22 10 -43 18 -47 18 -3 1 -10 4
-14 9 -4 4 -16 7 -26 7 -10 0 -18 4 -18 10 0 5 -3 9 -7 8 -5 0 -17 2 -28 7
-285 116 -968 354 -1122 390 -16 4 -286 81 -323 92 -8 2 -15 4 -15 4 0 0 -74
18 -95 23 -8 2 -80 21 -160 41 -80 20 -152 38 -160 40 -8 2 -89 19 -180 38
-91 20 -178 38 -195 41 -16 2 -66 12 -110 21 -73 15 -97 19 -160 29 -11 2 -33
6 -50 9 -26 6 -57 10 -140 22 -11 2 -49 8 -85 14 -36 5 -83 12 -105 15 -22 4
-51 8 -65 11 -14 2 -50 7 -80 10 -30 3 -66 7 -80 10 -14 2 -50 6 -80 9 -30 3
-64 8 -75 10 -11 2 -56 7 -100 10 -44 4 -96 9 -115 11 -19 2 -66 6 -105 9 -38
4 -90 8 -115 10 -25 3 -97 7 -160 11 -63 4 -137 9 -165 11 -61 5 -1042 14
-1047 9z"/>
</g>
</svg>
